# Blender v3.1.2 OBJ File: 'untitled.blend'
# www.blender.org
mtllib husky.mtl
o Plane
v -0.550496 0.463665 -0.017897
v -0.148928 0.351645 -0.017897
v -0.469927 0.730767 -0.017897
v -0.310736 0.874104 -0.017897
v 0.567812 0.335443 -0.017897
v 0.075919 0.962134 -0.017897
v 0.592640 0.774215 -0.017897
v 0.354696 1.218193 -0.017897
v 0.828926 1.324876 -0.017897
v 0.547911 1.394863 -0.017897
v 0.900054 1.552389 -0.017897
v 0.654106 1.617416 -0.017897
v 0.962963 1.775556 -0.017897
v 0.755319 1.817117 -0.017897
v 1.019914 1.889147 -0.017897
v 0.879392 2.001045 -0.017897
v 1.146839 1.841189 -0.017897
v 1.000136 2.139617 -0.017897
v 1.267100 2.011962 -0.017897
v 1.145120 2.157812 -0.017897
v 1.296162 1.787928 -0.017897
v 1.388516 1.865588 -0.017897
v 1.385499 1.751335 -0.017897
v 1.431841 1.786159 -0.017897
v 0.629232 0.578127 -0.017897
v 0.223766 1.106841 -0.017897
v 0.152609 0.295250 -0.017897
v -0.051641 0.943225 -0.017897
v -0.388685 0.699737 0.677702
v -0.469254 0.432635 0.385260
v -0.067685 0.320615 0.582963
v -0.229493 0.843073 0.700249
v 0.649054 0.304412 0.475682
v 0.157161 0.931104 0.644196
v 0.233851 0.264220 0.538473
v 0.029602 0.912194 0.662052
v 0.673882 0.743185 0.460752
v 0.435938 1.187163 0.590043
v 0.710474 0.547097 0.460552
v 0.305009 1.075811 0.615451
v 0.910168 1.293845 0.404691
v 0.629154 1.363832 0.550869
v 0.981297 1.521358 0.385128
v 0.735348 1.586386 0.520769
v 1.044206 1.744526 0.371236
v 0.836561 1.786086 0.492656
v 1.101156 1.858117 0.354696
v 0.960634 1.970015 0.451311
v 1.228081 1.810159 0.304372
v 1.081378 2.108587 0.418554
v 1.348342 1.980932 0.270899
v 1.226362 2.126782 0.364296
v 1.377404 1.756898 0.245224
v 1.469758 1.834557 0.217099
v 1.466742 1.720304 0.209647
v 1.513083 1.755129 0.198774
v 1.334101 1.773437 0.104979
v 1.184779 1.826698 0.132601
v -0.431987 0.716276 0.306945
v -0.272796 0.859613 0.317474
v 1.305040 1.997471 0.116969
v 1.426456 1.851097 0.091845
v 1.000903 1.761065 0.163826
v 0.937994 1.537898 0.170314
v 1.469781 1.771668 0.083287
v 1.423439 1.736844 0.088365
v 0.692046 1.602925 0.233658
v 0.793259 1.802626 0.220529
v 0.605752 0.320952 0.212602
v 0.190549 0.280759 0.241925
v -0.013701 0.928734 0.299636
v 1.057853 1.874656 0.156102
v 0.667172 0.563636 0.205537
v 0.917331 1.986554 0.201221
v 0.630580 0.759724 0.205630
v 0.261706 1.092350 0.277874
v 0.392636 1.203702 0.266008
v 0.113859 0.947643 0.291297
v -0.110988 0.337154 0.262702
v 1.038076 2.125126 0.185923
v 0.866866 1.310385 0.179450
v 1.183059 2.143321 0.160585
v 0.585851 1.380372 0.247714
v -0.512557 0.449174 0.170375
v -0.439850 -0.079686 0.392699
v -0.187658 -0.119551 0.575171
v -0.448379 -0.109921 0.236052
v -0.230961 -0.103012 0.254910
v -0.359099 -0.369546 0.333145
v -0.204607 -0.413917 0.503871
v -0.313107 -0.418120 0.415122
v -0.212539 -0.407120 0.586133
v -0.356352 -0.428355 0.257645
v -0.255841 -0.390581 0.265872
v -0.168430 -0.895124 0.382618
v -0.067861 -0.884124 0.553629
v -0.211674 -0.905360 0.225141
v -0.111163 -0.867585 0.233368
v -0.164377 -0.402814 0.579255
v -0.207680 -0.386275 0.258994
v -0.019699 -0.879819 0.546750
v -0.063002 -0.863279 0.226489
v -0.136207 -0.124277 0.567970
v -0.179509 -0.107738 0.247709
v -0.161087 -0.411846 0.578932
v -0.204390 -0.395307 0.258671
v 0.325128 -0.077716 0.510105
v 0.539486 -0.051660 0.557028
v 0.496184 -0.035121 0.293948
v 0.281825 -0.061176 0.213557
v 0.391903 -0.396260 0.482382
v 0.512722 -0.399179 0.535213
v 0.469419 -0.382640 0.272133
v 0.348600 -0.379721 0.185834
v 0.397162 -0.881480 0.452887
v 0.517981 -0.884399 0.505718
v 0.474678 -0.867860 0.242639
v 0.353860 -0.864941 0.156340
v -0.388685 0.699737 -0.713497
v -0.469254 0.432635 -0.421055
v -0.067685 0.320615 -0.618758
v -0.229493 0.843073 -0.736044
v 0.649054 0.304412 -0.511477
v 0.157161 0.931104 -0.679990
v 0.233851 0.264220 -0.574268
v 0.029602 0.912194 -0.697847
v 0.673882 0.743185 -0.496547
v 0.435938 1.187163 -0.625837
v 0.710474 0.547097 -0.496347
v 0.305009 1.075811 -0.651246
v 0.910168 1.293845 -0.440486
v 0.629154 1.363832 -0.586664
v 0.981297 1.521358 -0.420922
v 0.735348 1.586386 -0.556564
v 1.044206 1.744526 -0.407031
v 0.836561 1.786086 -0.528451
v 1.101156 1.858117 -0.390491
v 0.960634 1.970015 -0.487106
v 1.228081 1.810159 -0.340167
v 1.081378 2.108587 -0.454348
v 1.348342 1.980932 -0.306693
v 1.226362 2.126782 -0.400091
v 1.377404 1.756898 -0.281018
v 1.469758 1.834557 -0.252894
v 1.466742 1.720304 -0.245442
v 1.513083 1.755129 -0.234569
v 1.334101 1.773437 -0.140774
v 1.184779 1.826698 -0.168396
v -0.431987 0.716276 -0.342739
v -0.272796 0.859613 -0.353269
v 1.305040 1.997471 -0.152764
v 1.426456 1.851097 -0.127640
v 1.000903 1.761065 -0.199621
v 0.937994 1.537898 -0.206108
v 1.469781 1.771668 -0.119082
v 1.423439 1.736844 -0.124160
v 0.692046 1.602925 -0.269453
v 0.793259 1.802626 -0.256324
v 0.605752 0.320952 -0.248397
v 0.190549 0.280759 -0.277720
v -0.013701 0.928734 -0.335431
v 1.057853 1.874656 -0.191897
v 0.667172 0.563636 -0.241331
v 0.917331 1.986554 -0.237016
v 0.630580 0.759724 -0.241425
v 0.261706 1.092350 -0.313669
v 0.392636 1.203702 -0.301803
v 0.113859 0.947643 -0.327092
v -0.110988 0.337154 -0.298497
v 1.038076 2.125126 -0.221718
v 0.866866 1.310385 -0.215245
v 1.183059 2.143321 -0.196380
v 0.585851 1.380372 -0.283509
v -0.512557 0.449174 -0.206170
v -0.439850 -0.079686 -0.428493
v -0.187658 -0.119551 -0.610966
v -0.448379 -0.109921 -0.271847
v -0.230961 -0.103012 -0.290705
v -0.359099 -0.369546 -0.368940
v -0.204607 -0.413917 -0.539666
v -0.313107 -0.418120 -0.450917
v -0.212539 -0.407120 -0.621928
v -0.356352 -0.428355 -0.293440
v -0.255841 -0.390581 -0.301667
v -0.168430 -0.895124 -0.418412
v -0.067861 -0.884124 -0.589423
v -0.211674 -0.905360 -0.260936
v -0.111163 -0.867585 -0.269162
v -0.164377 -0.402814 -0.615050
v -0.207680 -0.386275 -0.294788
v -0.019699 -0.879819 -0.582545
v -0.063002 -0.863279 -0.262284
v -0.136207 -0.124277 -0.603765
v -0.179509 -0.107738 -0.283504
v -0.161087 -0.411846 -0.614727
v -0.204390 -0.395307 -0.294466
v 0.325128 -0.077716 -0.545900
v 0.539486 -0.051660 -0.592822
v 0.496184 -0.035121 -0.329743
v 0.281825 -0.061176 -0.249352
v 0.391903 -0.396260 -0.518176
v 0.512722 -0.399179 -0.571008
v 0.469419 -0.382640 -0.307928
v 0.348600 -0.379721 -0.221629
v 0.397162 -0.881480 -0.488682
v 0.517981 -0.884399 -0.541513
v 0.474678 -0.867860 -0.278433
v 0.353860 -0.864941 -0.192134
vt 0.000000 0.000000
vt 1.000000 0.000000
vt 1.000000 1.000000
vt 0.000000 1.000000
vt 1.000000 1.000000
vt 1.000000 0.000000
vt 1.000000 0.000000
vt 1.000000 1.000000
vt 1.000000 1.000000
vt 1.000000 0.000000
vt 1.000000 0.000000
vt 1.000000 1.000000
vt 1.000000 0.000000
vt 1.000000 1.000000
vt 1.000000 0.000000
vt 1.000000 1.000000
vt 1.000000 0.000000
vt 1.000000 1.000000
vt 1.000000 0.000000
vt 1.000000 1.000000
vt 1.000000 0.000000
vt 1.000000 1.000000
vt 1.000000 0.000000
vt 1.000000 1.000000
vt 1.000000 0.000000
vt 1.000000 0.000000
vt 1.000000 0.000000
vt 1.000000 0.000000
vt 1.000000 0.000000
vt 1.000000 0.000000
vt 1.000000 1.000000
vt 0.000000 1.000000
vt 1.000000 0.000000
vt 1.000000 0.000000
vt 1.000000 0.000000
vt 1.000000 0.000000
vt 1.000000 0.000000
vt 1.000000 0.000000
vt 1.000000 1.000000
vt 1.000000 1.000000
vt 1.000000 0.000000
vt 1.000000 0.000000
vt 1.000000 0.000000
vt 1.000000 0.000000
vt 1.000000 1.000000
vt 1.000000 0.000000
vt 1.000000 0.000000
vt 1.000000 1.000000
vt 1.000000 0.000000
vt 1.000000 1.000000
vt 1.000000 1.000000
vt 1.000000 1.000000
vt 1.000000 0.000000
vt 1.000000 1.000000
vt 1.000000 0.000000
vt 1.000000 1.000000
vt 1.000000 1.000000
vt 0.000000 0.000000
vt 0.000000 0.000000
vt 1.000000 0.000000
vt 1.000000 1.000000
vt 1.000000 1.000000
vt 0.000000 0.000000
vt 1.000000 0.000000
vt 1.000000 0.000000
vt 1.000000 0.000000
vt 1.000000 1.000000
vt 1.000000 1.000000
vt 0.000000 1.000000
vt 1.000000 1.000000
vt 1.000000 0.000000
vt 1.000000 1.000000
vt 1.000000 1.000000
vt 1.000000 0.000000
vt 1.000000 1.000000
vt 1.000000 0.000000
vt 1.000000 0.000000
vt 1.000000 0.000000
vt 1.000000 1.000000
vt 1.000000 0.000000
vt 1.000000 1.000000
vt 1.000000 0.000000
vt 1.000000 0.000000
vt 1.000000 0.000000
vt 1.000000 0.000000
vt 1.000000 1.000000
vt 1.000000 0.000000
vt 1.000000 0.000000
vt 1.000000 0.000000
vt 1.000000 0.000000
vt 1.000000 0.000000
vt 0.000000 0.000000
vt 1.000000 0.000000
vt 0.000000 0.000000
vt 1.000000 0.000000
vt 1.000000 0.000000
vt 1.000000 0.000000
vt 1.000000 0.000000
vt 0.000000 0.000000
vt 0.000000 0.000000
vt 0.000000 0.000000
vt 1.000000 0.000000
vt 1.000000 0.000000
vt 0.000000 0.000000
vt 1.000000 0.000000
vt 1.000000 0.000000
vt 1.000000 0.000000
vt 1.000000 0.000000
vt 1.000000 0.000000
vt 1.000000 0.000000
vt 1.000000 0.000000
vt 1.000000 0.000000
vt 1.000000 0.000000
vt 1.000000 0.000000
vt 1.000000 0.000000
vt 1.000000 0.000000
vt 1.000000 0.000000
vt 1.000000 0.000000
vt 0.000000 0.000000
vt 0.000000 1.000000
vt 1.000000 1.000000
vt 1.000000 0.000000
vt 1.000000 1.000000
vt 1.000000 1.000000
vt 1.000000 0.000000
vt 1.000000 0.000000
vt 1.000000 1.000000
vt 1.000000 1.000000
vt 1.000000 0.000000
vt 1.000000 0.000000
vt 1.000000 1.000000
vt 1.000000 0.000000
vt 1.000000 1.000000
vt 1.000000 0.000000
vt 1.000000 1.000000
vt 1.000000 0.000000
vt 1.000000 1.000000
vt 1.000000 0.000000
vt 1.000000 1.000000
vt 1.000000 0.000000
vt 1.000000 1.000000
vt 1.000000 0.000000
vt 1.000000 0.000000
vt 1.000000 0.000000
vt 1.000000 0.000000
vt 1.000000 0.000000
vt 1.000000 0.000000
vt 1.000000 0.000000
vt 1.000000 1.000000
vt 0.000000 1.000000
vt 1.000000 0.000000
vt 1.000000 0.000000
vt 1.000000 0.000000
vt 1.000000 0.000000
vt 1.000000 0.000000
vt 1.000000 0.000000
vt 1.000000 1.000000
vt 1.000000 1.000000
vt 1.000000 0.000000
vt 1.000000 0.000000
vt 1.000000 0.000000
vt 1.000000 0.000000
vt 1.000000 1.000000
vt 1.000000 0.000000
vt 1.000000 0.000000
vt 1.000000 1.000000
vt 1.000000 0.000000
vt 1.000000 1.000000
vt 1.000000 1.000000
vt 1.000000 1.000000
vt 1.000000 0.000000
vt 1.000000 1.000000
vt 1.000000 0.000000
vt 1.000000 1.000000
vt 1.000000 1.000000
vt 0.000000 0.000000
vt 1.000000 0.000000
vt 0.000000 0.000000
vt 1.000000 0.000000
vt 1.000000 0.000000
vt 1.000000 0.000000
vt 0.000000 0.000000
vt 1.000000 0.000000
vt 1.000000 0.000000
vt 0.000000 0.000000
vt 1.000000 0.000000
vt 1.000000 0.000000
vt 1.000000 0.000000
vt 0.000000 0.000000
vt 0.000000 0.000000
vt 0.000000 0.000000
vt 0.000000 0.000000
vt 1.000000 0.000000
vt 1.000000 0.000000
vt 1.000000 0.000000
vt 1.000000 0.000000
vt 1.000000 0.000000
vt 1.000000 0.000000
vt 1.000000 0.000000
vt 1.000000 0.000000
vt 1.000000 0.000000
vt 1.000000 0.000000
vt 1.000000 0.000000
vt 1.000000 0.000000
vt 1.000000 0.000000
vt 1.000000 0.000000
vt 1.000000 0.000000
vt 1.000000 0.000000
vn -0.3014 -0.4634 0.8333
vn 0.1601 -0.1366 0.9776
vn 0.3602 -0.0341 0.9322
vn 0.3825 -0.1057 0.9179
vn 0.4539 -0.0809 0.8874
vn 0.4734 -0.0968 0.8755
vn 0.4856 -0.1272 0.8649
vn 0.3768 -0.2008 0.9043
vn 0.4148 -0.1670 0.8944
vn 0.3446 -0.0626 0.9367
vn 0.3223 -0.0701 0.9440
vn 0.2858 -0.0460 0.9572
vn 0.1476 -0.1549 0.9768
vn -0.3375 -0.9413 -0.0061
vn -0.6714 0.7330 0.1093
vn 0.7402 0.6550 -0.1520
vn 0.9376 -0.2741 -0.2138
vn 0.5376 -0.7856 -0.3064
vn -0.8733 0.4594 0.1624
vn 0.0887 -0.0777 -0.9930
vn -0.3771 -0.9261 0.0077
vn -0.2498 0.9656 0.0719
vn 0.8367 0.4958 -0.2329
vn 0.8622 -0.4559 -0.2210
vn 0.9525 -0.2491 -0.1751
vn -0.8039 0.5702 0.1694
vn 0.9714 0.1814 -0.1532
vn -0.6330 0.7646 0.1211
vn -0.6856 0.7180 0.1204
vn -0.3537 -0.9354 -0.0008
vn -0.1865 -0.9821 -0.0265
vn -0.7269 0.6639 0.1759
vn 0.8972 -0.3991 -0.1892
vn -0.1401 0.9882 0.0627
vn 0.7344 0.6687 -0.1160
vn -0.6585 0.7413 0.1300
vn -0.9734 0.1703 0.1536
vn -0.0983 0.9906 0.0946
vn 0.9302 -0.3038 -0.2059
vn -0.4940 0.0467 0.8682
vn -0.8856 0.4379 0.1545
vn -0.8898 0.4294 0.1546
vn -0.2669 -0.9636 -0.0164
vn 0.9328 -0.2958 -0.2058
vn -0.1155 0.9885 0.0979
vn -0.9560 0.2486 0.1554
vn -0.6656 0.7347 0.1307
vn 0.7523 0.6474 -0.1223
vn -0.1443 0.9875 0.0631
vn 0.9007 -0.3910 -0.1893
vn -0.7372 0.6521 0.1769
vn -0.1847 -0.9824 -0.0268
vn -0.3535 -0.9354 -0.0009
vn -0.6915 0.7122 0.1209
vn -0.6398 0.7588 0.1217
vn 0.9714 0.1813 -0.1532
vn -0.8128 0.5572 0.1701
vn 0.9539 -0.2440 -0.1750
vn 0.8687 -0.4431 -0.2214
vn 0.8469 0.4748 -0.2394
vn -0.2548 0.9643 0.0724
vn -0.3784 -0.9256 0.0082
vn 0.0935 -0.9929 -0.0732
vn -0.8779 0.4503 0.1626
vn 0.5598 -0.7677 -0.3120
vn 0.9394 -0.2679 -0.2137
vn 0.7533 0.6384 -0.1580
vn -0.6671 0.7369 0.1090
vn -0.3365 -0.9417 -0.0064
vn 0.1409 0.0255 0.9897
vn -0.9871 -0.0766 0.1405
vn 0.9556 -0.2579 -0.1425
vn 0.1655 -0.0662 -0.9840
vn -0.6648 -0.2317 0.7102
vn -0.0801 0.9948 0.0622
vn -0.7089 -0.0780 0.7010
vn 0.0909 -0.0434 -0.9949
vn -0.9348 -0.2984 0.1925
vn 0.2896 -0.9549 -0.0651
vn -0.8189 -0.2824 0.4997
vn 0.0502 0.0831 -0.9953
vn -0.9159 -0.2963 0.2708
vn 0.9487 0.2954 -0.1130
vn -0.1434 0.0239 -0.9894
vn 0.1434 -0.0239 0.9894
vn 0.0801 -0.9948 -0.0622
vn 0.9863 -0.0906 -0.1380
vn 0.0967 0.9946 0.0383
vn -0.0967 -0.9946 -0.0383
vn -0.1409 -0.0255 -0.9897
vn 0.4382 0.0928 -0.8941
vn 0.0172 0.0752 0.9970
vn 0.9294 -0.3256 -0.1735
vn -0.9560 -0.2655 0.1248
vn -0.9895 -0.0194 0.1434
vn 0.9839 -0.0654 -0.1661
vn -0.9682 -0.2142 0.1294
vn -0.2786 -0.0879 0.9564
vn 0.0108 -0.9981 -0.0607
vn -0.4011 -0.0599 0.9141
vn 0.5812 0.0556 -0.8118
vn 0.9867 0.0205 -0.1611
vn -0.3014 -0.4634 -0.8333
vn 0.1601 -0.1366 -0.9776
vn 0.3602 -0.0341 -0.9322
vn 0.3825 -0.1057 -0.9179
vn 0.4539 -0.0809 -0.8874
vn 0.4734 -0.0968 -0.8755
vn 0.4856 -0.1272 -0.8649
vn 0.3768 -0.2008 -0.9043
vn 0.4148 -0.1670 -0.8944
vn 0.3446 -0.0626 -0.9367
vn 0.3223 -0.0701 -0.9440
vn 0.2858 -0.0460 -0.9572
vn 0.1476 -0.1549 -0.9768
vn -0.3375 -0.9413 0.0061
vn -0.6714 0.7330 -0.1093
vn 0.7402 0.6550 0.1520
vn 0.9376 -0.2741 0.2138
vn 0.5376 -0.7856 0.3064
vn -0.8733 0.4594 -0.1624
vn 0.0887 -0.0777 0.9930
vn -0.3771 -0.9261 -0.0077
vn -0.2498 0.9656 -0.0719
vn 0.8367 0.4958 0.2329
vn 0.8622 -0.4559 0.2210
vn 0.9525 -0.2491 0.1751
vn -0.8039 0.5702 -0.1694
vn 0.9714 0.1814 0.1532
vn -0.6330 0.7646 -0.1211
vn -0.6856 0.7180 -0.1204
vn -0.3537 -0.9354 0.0008
vn -0.1865 -0.9821 0.0265
vn -0.7269 0.6639 -0.1759
vn 0.8972 -0.3991 0.1892
vn -0.1401 0.9882 -0.0627
vn 0.7344 0.6687 0.1160
vn -0.6585 0.7413 -0.1300
vn -0.9734 0.1703 -0.1536
vn -0.0983 0.9906 -0.0946
vn 0.9302 -0.3038 0.2059
vn -0.4940 0.0467 -0.8682
vn -0.8856 0.4379 -0.1545
vn -0.8898 0.4294 -0.1546
vn -0.2669 -0.9636 0.0164
vn 0.9328 -0.2958 0.2058
vn -0.1155 0.9885 -0.0979
vn -0.9560 0.2486 -0.1554
vn -0.6656 0.7347 -0.1307
vn 0.7523 0.6474 0.1223
vn -0.1443 0.9875 -0.0631
vn 0.9007 -0.3910 0.1893
vn -0.7372 0.6521 -0.1769
vn -0.1847 -0.9824 0.0268
vn -0.3535 -0.9354 0.0009
vn -0.6915 0.7122 -0.1209
vn -0.6398 0.7588 -0.1217
vn 0.9714 0.1813 0.1532
vn -0.8128 0.5572 -0.1701
vn 0.9539 -0.2440 0.1750
vn 0.8687 -0.4431 0.2214
vn 0.8469 0.4748 0.2394
vn -0.2548 0.9643 -0.0724
vn -0.3784 -0.9256 -0.0082
vn 0.0935 -0.9929 0.0732
vn -0.8779 0.4503 -0.1626
vn 0.5598 -0.7677 0.3120
vn 0.9394 -0.2679 0.2137
vn 0.7533 0.6384 0.1580
vn -0.6671 0.7369 -0.1090
vn -0.3365 -0.9417 0.0064
vn 0.1409 0.0255 -0.9897
vn -0.9871 -0.0766 -0.1405
vn 0.9556 -0.2579 0.1425
vn 0.1655 -0.0662 0.9840
vn -0.6648 -0.2317 -0.7102
vn -0.0801 0.9948 -0.0622
vn -0.7089 -0.0780 -0.7010
vn 0.0909 -0.0434 0.9949
vn -0.9348 -0.2984 -0.1925
vn 0.2896 -0.9549 0.0651
vn -0.8189 -0.2824 -0.4997
vn 0.0502 0.0831 0.9953
vn -0.9159 -0.2963 -0.2708
vn 0.9487 0.2954 0.1130
vn -0.1434 0.0239 0.9894
vn 0.1434 -0.0239 -0.9894
vn 0.0801 -0.9948 0.0622
vn 0.9863 -0.0906 0.1380
vn 0.0967 0.9946 -0.0383
vn -0.0967 -0.9946 0.0383
vn -0.1409 -0.0255 0.9897
vn 0.4382 0.0928 0.8941
vn 0.0172 0.0752 -0.9970
vn 0.9294 -0.3256 0.1735
vn -0.9560 -0.2655 -0.1248
vn -0.9895 -0.0194 -0.1434
vn 0.9839 -0.0654 0.1661
vn -0.9682 -0.2142 -0.1294
vn -0.2786 -0.0879 -0.9564
vn 0.0108 -0.9981 0.0607
vn -0.4011 -0.0599 -0.9141
vn 0.5812 0.0556 0.8118
vn 0.9867 0.0205 0.1611
usemtl None
s off
f 30/1/1 31/2/1 32/3/1 29/4/1
f 36/5/2 35/6/2 33/7/2 34/8/2
f 40/9/3 39/10/3 37/11/3 38/12/3
f 38/12/4 37/11/4 41/13/4 42/14/4
f 42/14/5 41/13/5 43/15/5 44/16/5
f 44/16/6 43/15/6 45/17/6 46/18/6
f 46/18/7 45/17/7 47/19/7 48/20/7
f 48/20/8 47/19/8 49/21/8 50/22/8
f 50/22/9 49/21/9 51/23/9 52/24/9
f 51/23/10 49/21/10 53/25/10 54/26/10
f 54/26/11 53/25/11 55/27/11 56/28/11
f 34/8/12 33/7/12 39/10/12 40/9/12
f 32/3/13 31/2/13 35/6/13 36/5/13
f 58/29/14 57/30/14 53/25/14 49/21/14
f 60/31/15 59/32/15 29/4/15 32/3/15
f 62/33/16 61/34/16 51/23/16 54/26/16
f 64/35/17 63/36/17 45/17/17 43/15/17
f 66/37/18 65/38/18 56/28/18 55/27/18
f 68/39/19 67/40/19 44/16/19 46/18/19
f 70/41/20 69/42/20 109/43/20 110/44/20
f 57/30/21 66/37/21 55/27/21 53/25/21
f 71/45/22 60/31/22 32/3/22 36/5/22
f 65/38/23 62/33/23 54/26/23 56/28/23
f 63/36/24 72/46/24 47/19/24 45/17/24
f 69/42/25 73/47/25 39/10/25 33/7/25
f 74/48/26 68/39/26 46/18/26 48/20/26
f 73/47/27 75/49/27 37/11/27 39/10/27
f 77/50/28 76/51/28 40/9/28 38/12/28
f 76/51/29 78/52/29 34/8/29 40/9/29
f 72/46/30 58/29/30 49/21/30 47/19/30
f 79/53/31 70/41/31 35/6/31 31/2/31
f 80/54/32 74/48/32 48/20/32 50/22/32
f 75/49/33 81/55/33 41/13/33 37/11/33
f 78/52/34 71/45/34 36/5/34 34/8/34
f 61/34/35 82/56/35 52/24/35 51/23/35
f 83/57/36 77/50/36 38/12/36 42/14/36
f 59/32/37 84/58/37 30/1/37 29/4/37
f 82/56/38 80/54/38 50/22/38 52/24/38
f 81/55/39 64/35/39 43/15/39 41/13/39
f 31/2/40 30/1/40 85/59/40 86/60/40
f 67/40/41 83/57/41 42/14/41 44/16/41
f 12/61/42 10/62/42 83/57/42 67/40/42
f 1/63/43 2/64/43 79/53/43 84/58/43
f 9/65/44 11/66/44 64/35/44 81/55/44
f 20/67/45 18/68/45 80/54/45 82/56/45
f 3/69/46 1/63/46 84/58/46 59/32/46
f 10/62/47 8/70/47 77/50/47 83/57/47
f 19/71/48 20/67/48 82/56/48 61/34/48
f 6/72/49 28/73/49 71/45/49 78/52/49
f 7/74/50 9/65/50 81/55/50 75/49/50
f 18/68/51 16/75/51 74/48/51 80/54/51
f 2/64/52 27/76/52 70/41/52 79/53/52
f 15/77/53 17/78/53 58/29/53 72/46/53
f 26/79/54 6/72/54 78/52/54 76/51/54
f 8/70/55 26/79/55 76/51/55 77/50/55
f 25/80/56 7/74/56 75/49/56 73/47/56
f 16/75/57 14/81/57 68/39/57 74/48/57
f 5/82/58 25/80/58 73/47/58 69/42/58
f 13/83/59 15/77/59 72/46/59 63/36/59
f 24/84/60 22/85/60 62/33/60 65/38/60
f 28/73/61 4/86/61 60/31/61 71/45/61
f 21/87/62 23/88/62 66/37/62 57/30/62
f 27/76/63 5/82/63 69/42/63 70/41/63
f 14/81/64 12/61/64 67/40/64 68/39/64
f 23/88/65 24/84/65 65/38/65 66/37/65
f 11/66/66 13/83/66 63/36/66 64/35/66
f 22/85/67 19/71/67 61/34/67 62/33/67
f 4/86/68 3/69/68 59/32/68 60/31/68
f 17/78/69 21/87/69 57/30/69 58/29/69
f 86/60/70 92/89/70 105/90/70 103/91/70
f 30/1/71 84/58/71 87/92/71 85/59/71
f 79/53/72 31/2/72 86/60/72 88/93/72
f 84/58/73 79/53/73 88/93/73 87/92/73
f 86/60/74 85/59/74 89/94/74 90/95/74
f 94/96/75 92/89/75 99/97/75 100/98/75
f 86/60/76 85/59/76 91/99/76 92/89/76
f 87/92/77 88/93/77 94/96/77 93/100/77
f 85/59/78 87/92/78 93/100/78 91/99/78
f 97/101/79 98/102/79 96/103/79 95/104/79
f 92/89/80 91/99/80 95/104/80 96/103/80
f 93/100/81 94/96/81 98/102/81 97/101/81
f 91/99/82 93/100/82 97/101/82 95/104/82
f 100/98/83 99/97/83 101/105/83 102/106/83
f 98/102/84 94/96/84 100/98/84 102/106/84
f 92/89/85 96/103/85 101/105/85 99/97/85
f 96/103/86 98/102/86 102/106/86 101/105/86
f 104/107/87 103/91/87 105/90/87 106/108/87
f 88/93/88 86/60/88 103/91/88 104/107/88
f 92/89/89 94/96/89 106/108/89 105/90/89
f 94/96/90 88/93/90 104/107/90 106/108/90
f 110/44/91 109/43/91 113/109/91 114/110/91
f 33/7/92 35/6/92 107/111/92 108/112/92
f 69/42/93 33/7/93 108/112/93 109/43/93
f 35/6/94 70/41/94 110/44/94 107/111/94
f 111/113/95 114/110/95 118/114/95 115/115/95
f 109/43/96 108/112/96 112/116/96 113/109/96
f 107/111/97 110/44/97 114/110/97 111/113/97
f 108/112/98 107/111/98 111/113/98 112/116/98
f 118/114/99 117/117/99 116/118/99 115/115/99
f 112/116/100 111/113/100 115/115/100 116/118/100
f 114/110/101 113/109/101 117/117/101 118/114/101
f 113/109/102 112/116/102 116/118/102 117/117/102
f 120/119/103 119/120/103 122/121/103 121/122/103
f 126/123/104 124/124/104 123/125/104 125/126/104
f 130/127/105 128/128/105 127/129/105 129/130/105
f 128/128/106 132/131/106 131/132/106 127/129/106
f 132/131/107 134/133/107 133/134/107 131/132/107
f 134/133/108 136/135/108 135/136/108 133/134/108
f 136/135/109 138/137/109 137/138/109 135/136/109
f 138/137/110 140/139/110 139/140/110 137/138/110
f 140/139/111 142/141/111 141/142/111 139/140/111
f 141/142/112 144/143/112 143/144/112 139/140/112
f 144/143/113 146/145/113 145/146/113 143/144/113
f 124/124/114 130/127/114 129/130/114 123/125/114
f 122/121/115 126/123/115 125/126/115 121/122/115
f 148/147/116 139/140/116 143/144/116 147/148/116
f 150/149/117 122/121/117 119/120/117 149/150/117
f 152/151/118 144/143/118 141/142/118 151/152/118
f 154/153/119 133/134/119 135/136/119 153/154/119
f 156/155/120 145/146/120 146/145/120 155/156/120
f 158/157/121 136/135/121 134/133/121 157/158/121
f 160/159/122 200/160/122 199/161/122 159/162/122
f 147/148/123 143/144/123 145/146/123 156/155/123
f 161/163/124 126/123/124 122/121/124 150/149/124
f 155/156/125 146/145/125 144/143/125 152/151/125
f 153/154/126 135/136/126 137/138/126 162/164/126
f 159/162/127 123/125/127 129/130/127 163/165/127
f 164/166/128 138/137/128 136/135/128 158/157/128
f 163/165/129 129/130/129 127/129/129 165/167/129
f 167/168/130 128/128/130 130/127/130 166/169/130
f 166/169/131 130/127/131 124/124/131 168/170/131
f 162/164/132 137/138/132 139/140/132 148/147/132
f 169/171/133 121/122/133 125/126/133 160/159/133
f 170/172/134 140/139/134 138/137/134 164/166/134
f 165/167/135 127/129/135 131/132/135 171/173/135
f 168/170/136 124/124/136 126/123/136 161/163/136
f 151/152/137 141/142/137 142/141/137 172/174/137
f 173/175/138 132/131/138 128/128/138 167/168/138
f 149/150/139 119/120/139 120/119/139 174/176/139
f 172/174/140 142/141/140 140/139/140 170/172/140
f 171/173/141 131/132/141 133/134/141 154/153/141
f 121/122/142 176/177/142 175/178/142 120/119/142
f 157/158/143 134/133/143 132/131/143 173/175/143
f 12/61/144 157/158/144 173/175/144 10/62/144
f 1/63/145 174/176/145 169/171/145 2/64/145
f 9/65/146 171/173/146 154/153/146 11/66/146
f 20/67/147 172/174/147 170/172/147 18/68/147
f 3/69/148 149/150/148 174/176/148 1/63/148
f 10/62/149 173/175/149 167/168/149 8/70/149
f 19/71/150 151/152/150 172/174/150 20/67/150
f 6/72/151 168/170/151 161/163/151 28/73/151
f 7/74/152 165/167/152 171/173/152 9/65/152
f 18/68/153 170/172/153 164/166/153 16/75/153
f 2/64/154 169/171/154 160/159/154 27/76/154
f 15/77/155 162/164/155 148/147/155 17/78/155
f 26/79/156 166/169/156 168/170/156 6/72/156
f 8/70/157 167/168/157 166/169/157 26/79/157
f 25/80/158 163/165/158 165/167/158 7/74/158
f 16/75/159 164/166/159 158/157/159 14/81/159
f 5/82/160 159/162/160 163/165/160 25/80/160
f 13/83/161 153/154/161 162/164/161 15/77/161
f 24/84/162 155/156/162 152/151/162 22/85/162
f 28/73/163 161/163/163 150/149/163 4/86/163
f 21/87/164 147/148/164 156/155/164 23/88/164
f 27/76/165 160/159/165 159/162/165 5/82/165
f 14/81/166 158/157/166 157/158/166 12/61/166
f 23/88/167 156/155/167 155/156/167 24/84/167
f 11/66/168 154/153/168 153/154/168 13/83/168
f 22/85/169 152/151/169 151/152/169 19/71/169
f 4/86/170 150/149/170 149/150/170 3/69/170
f 17/78/171 148/147/171 147/148/171 21/87/171
f 176/177/172 193/179/172 195/180/172 182/181/172
f 120/119/173 175/178/173 177/182/173 174/176/173
f 169/171/174 178/183/174 176/177/174 121/122/174
f 174/176/175 177/182/175 178/183/175 169/171/175
f 176/177/176 180/184/176 179/185/176 175/178/176
f 184/186/177 190/187/177 189/188/177 182/181/177
f 176/177/178 182/181/178 181/189/178 175/178/178
f 177/182/179 183/190/179 184/186/179 178/183/179
f 175/178/180 181/189/180 183/190/180 177/182/180
f 187/191/181 185/192/181 186/193/181 188/194/181
f 182/181/182 186/193/182 185/192/182 181/189/182
f 183/190/183 187/191/183 188/194/183 184/186/183
f 181/189/184 185/192/184 187/191/184 183/190/184
f 190/187/185 192/195/185 191/196/185 189/188/185
f 188/194/186 192/195/186 190/187/186 184/186/186
f 182/181/187 189/188/187 191/196/187 186/193/187
f 186/193/188 191/196/188 192/195/188 188/194/188
f 194/197/189 196/198/189 195/180/189 193/179/189
f 178/183/190 194/197/190 193/179/190 176/177/190
f 182/181/191 195/180/191 196/198/191 184/186/191
f 184/186/192 196/198/192 194/197/192 178/183/192
f 200/160/193 204/199/193 203/200/193 199/161/193
f 123/125/194 198/201/194 197/202/194 125/126/194
f 159/162/195 199/161/195 198/201/195 123/125/195
f 125/126/196 197/202/196 200/160/196 160/159/196
f 201/203/197 205/204/197 208/205/197 204/199/197
f 199/161/198 203/200/198 202/206/198 198/201/198
f 197/202/199 201/203/199 204/199/199 200/160/199
f 198/201/200 202/206/200 201/203/200 197/202/200
f 208/205/201 205/204/201 206/207/201 207/208/201
f 202/206/202 206/207/202 205/204/202 201/203/202
f 204/199/203 208/205/203 207/208/203 203/200/203
f 203/200/204 207/208/204 206/207/204 202/206/204
